# xmcd
#
# Track frame offsets:
#	150
#	11474
#	24926
#	36908
#	51892
#	68672
#	79053
#	89844
#	101586
#	115420
#	125282
#	134618
#	148665
#	166416
#	178126
#	192238
#
# Disc length: 2723 seconds
#
# Revision: 1
# Processed by: cddbd v1.5.2PL0 Copyright (c) Steve Scherf et al.
# Submitted via: audiograbber 1.83.01
#
DISCID=df0aa110
DTITLE=Various Artist - The Coolest Songs In The World! Vol. 5
DYEAR=2008
DGENRE=Rock
TTITLE0=The Hentchmen - Some Other Guy
TTITLE1=The Hellacopters - Nothing Terribly New
TTITLE2=Butch Walker and the Lets Go Out Tonites - Hot Girls In Good Moods
TTITLE3=The Dollyrots - Because I'm Awesome
TTITLE4=Cheap Trick - If It Takes A Lifetime
TTITLE5=The Len Price 3 - If I Ain't Got You
TTITLE6=The Pipettes - Pull Shapes
TTITLE7=The Apers - Almost Summer
TTITLE8=The Satellites - Why Do They Know
TTITLE9=Black Tie Revue - Code Fun
TTITLE10=Hell On Heels - Ain't So Cool
TTITLE11=Roy Loney and the Longshots - Baby Du Jour
TTITLE12=The Raconteurs - Hands
TTITLE13=The Launderettes - What Would Joan Jett Do?
TTITLE14=The Saints - Porno Movies
TTITLE15=Jimmy Jukebox - 25 Hours A Day
EXTD=
EXTT0=
EXTT1=
EXTT2=
EXTT3=
EXTT4=
EXTT5=
EXTT6=
EXTT7=
EXTT8=
EXTT9=
EXTT10=
EXTT11=
EXTT12=
EXTT13=
EXTT14=
EXTT15=
PLAYORDER=
